<?xml version="1.0" encoding="UTF-8"?>
<svg width="100px" height="100px" viewBox="0 0 100 100" version="1.1" xmlns="http://www.w3.org/2000/svg" xmlns:xlink="http://www.w3.org/1999/xlink">
    <!-- Generator: Sketch 46 (44423) - http://www.bohemiancoding.com/sketch -->
    <title>Icon 1</title>
    <desc>Created with Sketch.</desc>
    <defs></defs>
    <g id="Page-1" stroke="none" stroke-width="1" fill="none" fill-rule="evenodd">
        <g id="Icon-1">
            <g id="Group">
                <path d="M50,100 C22.3869565,100 0,77.6130435 0,50 C0,22.3847826 22.3869565,0 50,0 C77.6152174,0 100,22.3847826 100,50 C100,77.6130435 77.6152174,100 50,100 Z" id="Combined-Shape" fill="#15C39A"></path>
                <path d="M56.5347826,60.7956522 C56.8304348,62.4326087 58.3695652,63.5543478 60.0326087,63.5543478 L65.2717391,63.5543478 L68.3086957,63.1282609 C63.45,70.2565217 55.0130435,73.5369565 45.7891304,72.0891304 C38.2804348,70.9108696 31.8304348,65.8304348 29.1086957,58.7347826 C22.9304348,42.6282609 34.6934783,27.25 50.0217391,27.25 C58.0108696,27.25 65.0186863,31.9235141 69.0326087,37.573913 C70.1901179,39.2033388 72.2152174,39.673913 73.7543478,38.6065217 C75.2152174,37.5934783 75.6413043,35.6695652 74.7630435,34.1565217 C69.2065217,25.4826087 59.2217391,19.9326087 47.9934783,20.6847826 C33.373913,21.6652174 21.5434783,33.6282609 20.7021739,48.2565217 C19.726087,65.2782609 33.2282609,79.176087 50.0217391,79.176087 C58.8434783,79.176087 66.7413043,75.3347826 72.1217391,69.1195652 L71.4847826,72.6847826 L71.4847826,75.9065217 C71.4847826,77.5673913 72.6043478,79.1086957 74.2413043,79.4043478 C76.3913043,79.7913043 78.2608696,78.15 78.2608696,76.0717391 L78.2608696,56.776087 C78.2608696,56.776087 62.2431364,56.3361458 59.8652174,56.776087 C57.4872984,57.2160281 56.1456522,58.6478261 56.5347826,60.7956522 Z" id="Fill-11" fill="#FFFFFF"></path>
            </g>
        </g>
    </g>
</svg>